<?xml version="1.0" standalone="no"?>
<!DOCTYPE svg PUBLIC "-//W3C//DTD SVG 20010904//EN"
 "http://www.w3.org/TR/2001/REC-SVG-20010904/DTD/svg10.dtd">
<svg version="1.0" xmlns="http://www.w3.org/2000/svg"
 width="512.000000pt" height="512.000000pt" viewBox="0 0 512.000000 512.000000"
 preserveAspectRatio="xMidYMid meet">
<metadata>
Created by potrace 1.14, written by Peter Selinger 2001-2017
</metadata>
<g transform="translate(0.000000,512.000000) scale(0.100000,-0.100000)"
fill="#000000" stroke="none">
<path d="M0 2560 l0 -2560 2560 0 2560 0 0 2560 0 2560 -2560 0 -2560 0 0
-2560z m3118 1730 c26 -6 60 -22 75 -36 16 -14 95 -126 177 -249 l149 -223
348 -4 c347 -4 348 -4 422 -31 171 -61 302 -203 341 -369 13 -60 13 -2098 -1
-2158 -42 -183 -210 -346 -396 -385 -102 -22 -3244 -22 -3346 0 -189 40 -357
206 -397 391 -7 33 -10 396 -8 1104 l3 1055 28 65 c79 179 232 296 421 320 39
5 205 10 368 10 l298 0 149 223 c149 224 190 272 239 283 15 3 32 7 37 9 27 9
1049 4 1093 -5z"/>
<path d="M1985 3714 c-82 -124 -163 -237 -178 -250 -15 -13 -44 -28 -65 -34
-22 -6 -183 -10 -405 -10 -288 0 -375 -3 -400 -14 -42 -17 -83 -66 -97 -114
-8 -26 -10 -340 -8 -1018 l3 -980 25 -37 c13 -20 41 -45 61 -56 37 -21 41 -21
1639 -21 1598 0 1602 0 1639 21 20 11 48 36 61 56 l25 37 0 1005 0 1006 -25
38 c-14 20 -43 46 -66 57 -38 19 -61 20 -410 20 -223 0 -384 4 -406 10 -21 6
-50 21 -65 34 -15 13 -95 126 -178 250 l-150 226 -425 0 -425 0 -150 -226z
m703 -469 c279 -27 556 -242 674 -525 55 -130 63 -177 62 -345 -1 -135 -4
-158 -29 -235 -97 -299 -298 -499 -595 -592 -66 -20 -95 -23 -240 -23 -144 0
-174 3 -238 23 -300 94 -499 292 -597 592 -26 78 -28 98 -29 240 0 177 11 232
75 368 131 283 393 472 692 501 80 8 97 8 225 -4z"/>
<path d="M2436 2884 c-176 -43 -326 -189 -371 -364 -72 -277 88 -555 362 -629
96 -26 165 -26 259 -3 226 57 386 263 386 497 0 335 -310 578 -636 499z"/>
</g>
</svg>
